<svg width="176" height="20" fill="none" xmlns="http://www.w3.org/2000/svg"><path d="M14.39 12.98c.28.088.507.227.683.418.176.19.264.36.264.506-.044.63-.227 1.327-.55 2.09-.323.777-.74 1.643-1.254 2.596a.896.896 0 00-.066.308v.044c0 .03-.08.161-.242.396a.238.238 0 01-.176.066c-.117 0-.257-.08-.418-.242a3.399 3.399 0 01-.396-.418 1.205 1.205 0 01-.044-.264c0-.19.11-.506.33-.946.058-.117.212-.41.462-.88.25-.47.447-.88.594-1.232a4.16 4.16 0 00.286-.858l-.154-.176c-.117.073-.924.132-2.42.176-.147 0-.264.007-.352.022h-.176a.352.352 0 00-.22-.088c-.103 0-.206.015-.308.044l-1.386.044h-.264a1.02 1.02 0 00-.242.022 3.913 3.913 0 01-.748.088c-.235 0-.448.015-.638.044l-1.32.132a66.46 66.46 0 00-2.266.22c-.294 0-.558.059-.792.176-.22.117-.374.183-.462.198-.22.792-.492 1.84-.814 3.146l-.132.506c-.03.22-.22.381-.572.484a5.507 5.507 0 01-.528-.616.615.615 0 01-.044-.462c0 .059.066-.147.198-.616.132-.47.227-.887.286-1.254l.374-1.65c-.059-.088-.059-.183 0-.286a2.42 2.42 0 01.308-.44l1.474-.242c.322-.073.718-.337 1.188-.792s.858-.895 1.166-1.32C5.796 10.897 6.39 9.893 6.8 8.91c.425-.983.938-2.383 1.54-4.202.161-.425.337-.946.528-1.562.117-.103.205-.293.264-.572.073-.293.11-.543.11-.748a.688.688 0 00-.352-.044.923.923 0 01-.286 0 .988.988 0 01-.418-.396 1.076 1.076 0 01-.132-.77.491.491 0 01.242.022c.117.015.242.022.374.022.161 0 .3-.015.418-.044A39.9 39.9 0 0110.1.462c.601-.088.938-.154 1.012-.198a50.786 50.786 0 012.442-.198A28.209 28.209 0 0115.557 0c.234 0 .462.073.682.22.22.147.352.3.396.462.014.41-.294 1.613-.924 3.608-.63 1.98-1.225 3.615-1.782 4.906-.103.323-.286.821-.55 1.496l-.33.88-.462 1.518c.014.044.037.103.066.176.03.059.066.088.11.088l.33-.044c.132-.03.271-.059.418-.088.161-.03.271-.059.33-.088a1.88 1.88 0 00.198-.176h.022a.195.195 0 01.088-.022c.044 0 .125.015.242.044zm-2.31-2.706c.045-.015.265-.557.66-1.628.412-1.07.72-1.9.925-2.486l.198-.55c.455-1.305.777-2.259.968-2.86.19-.616.315-1.122.374-1.518a5.527 5.527 0 00-.968-.066c-.616 0-1.261.044-1.936.132-.66.088-1.144.198-1.452.33l-.418 1.034c-.015.059-.25.829-.704 2.31-.455 1.481-1.13 3.16-2.024 5.038-.895 1.877-1.746 3.146-2.552 3.806.454 0 1.525-.073 3.212-.22 1.687-.147 2.588-.235 2.706-.264.102-.543.22-1.005.352-1.386.147-.396.367-.953.66-1.672zm6.747 4.598a.843.843 0 01-.418-.088 3.345 3.345 0 01-.44-.33c-.484-.513-.726-.983-.726-1.408 0-.103.008-.176.022-.22a.563.563 0 00.044-.308v-.198c-.058-.059-.088-.095-.088-.11 0-.03.015-.051.044-.066a.342.342 0 00.066-.088c.088 0 .118-.08.088-.242-.03-.117.03-.374.176-.77.147-.41.33-.785.55-1.122.162-.264.396-.594.704-.99.323-.396.609-.697.858-.902.352-.308.668-.535.946-.682a3.63 3.63 0 01.924-.33c.294-.073.492-.11.594-.11.103 0 .19.03.264.088.088.044.198.132.33.264.396.176.668.403.814.682.162.264.242.682.242 1.254 0 .953-.388 1.987-1.166 3.102-.337.484-.652.858-.946 1.122a9.13 9.13 0 01-1.166.814 4.01 4.01 0 01-.858.484c-.25.088-.535.14-.858.154zm2.112-2.332c.352-.396.63-.77.836-1.122.22-.352.426-.8.616-1.342.074-.25.11-.55.11-.902 0-.44-.058-.69-.176-.748a.976.976 0 00-.44-.11c-.322 0-.66.147-1.012.44a5.882 5.882 0 00-1.144 1.364c-.337.528-.682 1.188-1.034 1.98a2.09 2.09 0 00-.22.902c0 .22.052.396.154.528a.589.589 0 00.462.198c.484 0 1.1-.396 1.848-1.188zm6.524 2.42a3.59 3.59 0 01-.462.044c-.543 0-.99-.169-1.342-.506-.352-.337-.528-.807-.528-1.408-.059-.645.08-1.445.418-2.398.352-.953.792-1.753 1.32-2.398.367-.425.682-.77.946-1.034.264-.264.506-.44.726-.528a2.6 2.6 0 011.034-.198c.264.059.52.169.77.33.264.161.396.323.396.484l.11.11c.088 0 .169.11.242.33.073.205.11.433.11.682 0 .205-.037.381-.11.528-.059.279-.161.52-.308.726-.132.205-.264.308-.396.308-.161 0-.242.044-.242.132 0 .059-.03.088-.088.088-.073 0-.161-.044-.264-.132a.749.749 0 01-.22-.308c0-.044.03-.169.088-.374.059-.205.117-.433.176-.682a1.94 1.94 0 00.066-.462c0-.293-.11-.44-.33-.44a.781.781 0 00-.352.088c-.587.323-1.107.836-1.562 1.54-.455.704-.836 1.672-1.144 2.904-.073.323-.11.58-.11.77 0 .147.007.264.022.352.03.088.059.14.088.154.073.03.227.044.462.044.543 0 .924-.066 1.144-.198.47-.25.99-.587 1.562-1.012a4.65 4.65 0 00.264-.22c.117-.117.227-.198.33-.242.103-.161.198-.257.286-.286.088-.044.227-.066.418-.066.19.059.345.14.462.242.117.088.117.161 0 .22-.044 0-.073.015-.088.044a.168.168 0 00-.022.066c.03.073-.088.257-.352.55a7.973 7.973 0 01-.88.836c-.323.25-.543.374-.66.374a.486.486 0 00-.154.022c-.044.015-.066.051-.066.11 0 .059-.227.198-.682.418-.44.205-.8.337-1.078.396zm6.038-.572a.705.705 0 01-.176-.44c0-.117-.036-.176-.11-.176-.088-.088.081-.587.506-1.496.426-.924.792-1.628 1.1-2.112a.4.4 0 00.132-.176c.03-.088.03-.132 0-.132.03-.044.074-.117.132-.22.06-.103.118-.19.176-.264.25-.484.352-.873.308-1.166a.21.21 0 00-.198-.066.27.27 0 00-.11.044c-.029.015-.11.044-.242.088a.977.977 0 00-.308.132c-.337.22-.55.33-.638.33-.088 0-.168-.044-.242-.132a2.167 2.167 0 01-.198-.44 1.047 1.047 0 01-.066-.286c0-.103.06-.205.176-.308a.855.855 0 01.308-.198c.132-.059.22-.103.264-.132.308-.176.528-.279.66-.308.264-.073.477-.11.638-.11.44 0 .748.205.924.616.206.25.308.535.308.858 0 .279-.102.638-.308 1.078l-.22.33a.531.531 0 00-.066.176c0 .03.008.044.022.044.06 0 .125-.051.198-.154.074-.073.17-.161.286-.264.118-.117.198-.176.242-.176a.168.168 0 00.066-.022c.03-.03.044-.088.044-.176l.22-.198c.06 0 .235-.125.528-.374l.418-.33c.162-.117.308-.176.44-.176a.667.667 0 01.198-.022c.28 0 .506.154.682.462.176.293.264.675.264 1.144l-.462 1.188.792-.968c.132-.161.308-.337.528-.528.03-.088.066-.14.11-.154a.387.387 0 01.11-.044c.015 0 .03-.007.044-.022.03-.015.044-.037.044-.066a5.01 5.01 0 01.22-.154.838.838 0 00.198-.176 1.07 1.07 0 01.44-.088c.308 0 .565.198.77.594.088.161.14.308.154.44.03.117.044.323.044.616-.058.323-.11.66-.154 1.012 0 .059-.014.205-.044.44-.073.161-.11.41-.11.748 0 .205.008.337.022.396.03.059.088.088.176.088.22-.044.506-.147.858-.308.367-.176.631-.345.792-.506.22-.22.418-.33.594-.33.162 0 .264.088.308.264.044.088-.073.323-.352.704-.264.381-.447.572-.55.572-.029 0-.088.044-.176.132a.963.963 0 01-.176.176c-.249.279-.454.418-.616.418a.668.668 0 00-.242.066.772.772 0 01-.242.044.643.643 0 01-.22.022 1.27 1.27 0 01-.638-.176.809.809 0 01-.396-.528c-.117-.293-.176-.704-.176-1.232 0-.132.015-.345.044-.638l.11-.682c.03-.279.06-.447.088-.506v-.198c0-.25-.022-.374-.066-.374-.117 0-.506.381-1.166 1.144-.66.748-1.166 1.393-1.518 1.936a3.71 3.71 0 00-.352.594c-.117.25-.19.381-.22.396a.274.274 0 01-.198.088c-.088 0-.183-.044-.286-.132a1.189 1.189 0 01-.264-.33 1 1 0 01-.088-.33c0-.103.044-.3.132-.594.088-.308.213-.711.374-1.21a35.5 35.5 0 00.396-1.254c.118-.352.191-.587.22-.704 0-.103-.366.161-1.1.792-.146.176-.315.36-.506.55a65.18 65.18 0 00-1.144 1.232c-.41.47-.77.917-1.078 1.342-.322.44-.564.748-.726.924-.146.176-.27.264-.374.264-.073 0-.168-.066-.286-.198zm14.725.176c-.147.03-.279.044-.396.044a2.96 2.96 0 01-.528-.044c-.161-.044-.242-.095-.242-.154 0-.044-.007-.073-.022-.088s-.044-.022-.088-.022a2.38 2.38 0 00-.132-.11 1.135 1.135 0 00-.264-.154 1.199 1.199 0 01-.198-.66c0-.25.066-.638.198-1.166.044-.47.264-1.056.66-1.76s.858-1.371 1.386-2.002c.543-.63 1.027-1.07 1.452-1.32.22-.22.499-.33.836-.33.264 0 .513.066.748.198.205.117.418.315.638.594.235.279.418.565.55.858.059.22.088.433.088.638 0 .22-.03.565-.088 1.034-.073.264-.14.587-.198.968a8.801 8.801 0 00-.066.99c-.03.205-.015.374.044.506.059.117.14.176.242.176a.548.548 0 00.242-.066c.147-.073.308-.11.484-.11.161 0 .293.044.396.132.103.088.154.22.154.396 0 .264-.183.528-.55.792-.352.264-.69.396-1.012.396-.22 0-.425-.169-.616-.506a9.858 9.858 0 01-.528-1.342l-.132-.506-.946.902-.506.506a5.342 5.342 0 00-.396.418c-.161.279-.565.543-1.21.792zm.066-1.298c.352-.205.785-.565 1.298-1.078a12.13 12.13 0 001.276-1.474c.455-.601.74-1.195.858-1.782a1.873 1.873 0 00-.286-.528c-.132-.176-.25-.271-.352-.286-.293 0-.601.169-.924.506-.323.337-.704.807-1.144 1.408l-.726 1.078c-.088.117-.242.433-.462.946-.22.499-.33.8-.33.902 0 .323.095.484.286.484.147 0 .315-.059.506-.176zm10.106-4.092a.845.845 0 00.044.374c.044.117.103.242.176.374.103.25.176.455.22.616.059.147.088.323.088.528 0 .205-.03.403-.088.594-.102.367-.264.77-.484 1.21-.044.088-.169.257-.374.506-.19.25-.322.403-.396.462a.15.15 0 01-.11.044.394.394 0 01-.198-.066.436.436 0 01-.132-.154c-.073-.161-.14-.418-.198-.77-.044-.367-.051-.638-.022-.814.015-.073.044-.345.088-.814a7.28 7.28 0 01.242-1.342c.117-.41.25-.645.396-.704.396-.176.704-.3.924-.374.22-.073.499-.235.836-.484.352-.235.543-.36.572-.374a2.09 2.09 0 01.528-.44c.206-.132.382-.286.528-.462.103-.117.279-.286.528-.506.059-.044.132-.132.22-.264.088-.147.183-.242.286-.286a.408.408 0 01.154-.22.546.546 0 00.154-.22c.088-.161.19-.33.308-.506.176-.264.293-.47.352-.616l.242-.572c.118-.293.176-.543.176-.748a.743.743 0 00-.088-.374 2.528 2.528 0 00-.704-.726c-.293-.235-.462-.381-.506-.44l-.176-.088c-.03.03-.073.044-.132.044a.415.415 0 00-.132-.022.866.866 0 00-.594.088c-.205.103-.462.25-.77.44-.953.601-1.775 1.467-2.464 2.596a17.746 17.746 0 00-1.65 3.674 3.09 3.09 0 01-.594.11 4.24 4.24 0 01-.154.418c.015.03.059.125.132.286.088.147.206.264.352.352-.161.352-.279.843-.352 1.474-.058.616-.08 1.188-.066 1.716 0 .044.015.11.044.198.044.073.059.14.044.198-.03.176.008.403.11.682.117.264.257.499.418.704.176.205.33.308.462.308.088 0 .235.044.44.132.205.103.381.154.528.154.103 0 .176-.015.22-.044.074-.03.184-.066.33-.11.147-.044.257-.088.33-.132.264-.161.609-.557 1.034-1.188.161-.235.316-.63.462-1.188l.132-.462c.044-.103.066-.286.066-.55v-.33c0-.117.008-.19.022-.22l-.154-.66a2.023 2.023 0 00-.242-.462c-.117-.19-.205-.33-.264-.418a9.376 9.376 0 01-.374-.088 3.418 3.418 0 00-.484-.088 1.24 1.24 0 01-.286.044zm-.572-1.364c.103-.161.279-.513.528-1.056.264-.572.455-.953.572-1.144l.264-.396c.338-.557.55-.91.638-1.056l.066-.132c.117-.132.374-.367.77-.704.352-.308.52-.455.506-.44a1.8 1.8 0 01.66-.396l.088-.022a.21.21 0 01.176.088.274.274 0 01.088.198c0 .323-.102.69-.308 1.1-.19.396-.41.733-.66 1.012l-.396.506-.418.506c-.293.323-.718.704-1.276 1.144-.543.425-.975.69-1.298.792zm9.277 6.996a2.158 2.158 0 01-.572-.308 4.857 4.857 0 01-.55-.55c-.176-.205-.52-.726-1.034-1.562-.513-.836-.799-1.305-.858-1.408-.044.117-.102.25-.176.396a2.296 2.296 0 00-.132.374 1.596 1.596 0 00-.044.418c-.146.205-.264.47-.352.792a8.784 8.784 0 01-.176.66 1.396 1.396 0 01-.572.792c-.264-.015-.52-.176-.77-.484a.891.891 0 01-.11-.44c0-.161.037-.337.11-.528.03-.132.132-.44.308-.924.176-.484.316-.873.418-1.166.074-.19.191-.513.352-.968.176-.47.272-.748.286-.836.044-.19.176-.462.396-.814.294-.513.477-.939.55-1.276a.562.562 0 01.22-.286.644.644 0 01.396-.154c.162 0 .294.08.396.242l.132.066a.213.213 0 01.132.088c.147.147.22.315.22.506a.873.873 0 01-.11.374c-.102.19-.212.374-.33.55-.19.323-.352.616-.484.88-.117.264-.256.638-.418 1.122.382-.088.631-.161.748-.22.118-.073.316-.264.594-.572.264-.264.514-.499.748-.704.895-.865 1.372-1.335 1.43-1.408.118-.176.22-.308.308-.396a.725.725 0 01.352-.22c.206.03.345.066.418.11.088.044.272.176.55.396.059.059.088.161.088.308 0 .279-.08.477-.242.594-.044.03-.33.257-.858.682-1.07.895-1.98 1.599-2.728 2.112.323.513.638 1.085.946 1.716.03.352.154.594.374.726s.528.198.924.198c.118.059.191.132.22.22a.63.63 0 01.066.286c.015.103.03.183.044.242a2.622 2.622 0 00-.396.33c-.132.117-.242.176-.33.176-.102 0-.264-.044-.484-.132zm4.271-.33c-.264.059-.55-.022-.858-.242-.308-.22-.49-.462-.55-.726a1.309 1.309 0 01-.022-.286c0-.543.206-1.24.616-2.09.426-.865.94-1.657 1.54-2.376.602-.733 1.152-1.195 1.65-1.386.308-.161.506-.242.594-.242.088 0 .286.08.594.242.206.059.36.125.462.198.103.073.235.22.396.44.191.381.33.85.418 1.408.088.308.132.528.132.66 0 .117-.044.22-.132.308l-.088.088a.214.214 0 00-.044.11c0 .015.015.022.044.022a.658.658 0 01-.022.11c-.014.044-.044.11-.088.198-.176.557-.264 1.034-.264 1.43 0 .132.015.271.044.418.147.381.396.572.748.572.294 0 .572-.132.836-.396a9.11 9.11 0 01.506-.33c.118-.073.176-.059.176.044a.652.652 0 00.088.066c.044.03.088.044.132.044.103 0 .154.066.154.198s-.05.279-.154.44c-.102.103-.183.19-.242.264-.058.073-.088.132-.088.176l-.33.308c-.278.161-.608.242-.99.242-.396 0-.71-.08-.946-.242a2.522 2.522 0 01-.594-.638c-.19-.279-.315-.528-.374-.748l-.11-.22-.638.418c-.146.147-.315.3-.506.462-.19.147-.315.25-.374.308-.117.147-.22.22-.308.22h-.22c0 .103-.146.22-.44.352a1.96 1.96 0 01-.748.176zm-.22-1.188c.162 0 .572-.227 1.232-.682.66-.47 1.078-.814 1.254-1.034l.638-.66a2.98 2.98 0 00.55-.902c.147-.337.22-.645.22-.924 0-.25-.036-.425-.11-.528-.058-.176-.146-.264-.264-.264-.058 0-.227.051-.506.154-.278.176-.674.58-1.188 1.21a17.16 17.16 0 00-1.342 1.958c-.396.66-.594 1.144-.594 1.452a.24.24 0 00.044.132c.03.044.052.073.066.088zm14.726 1.584a.843.843 0 01-.418-.088 3.331 3.331 0 01-.44-.33c-.484-.513-.726-.983-.726-1.408a.77.77 0 01.022-.22.563.563 0 00.044-.308v-.198c-.059-.059-.088-.095-.088-.11 0-.03.015-.051.044-.066a.346.346 0 00.066-.088c.088 0 .117-.08.088-.242-.03-.117.03-.374.176-.77.147-.41.33-.785.55-1.122.161-.264.396-.594.704-.99.323-.396.609-.697.858-.902.352-.308.667-.535.946-.682.279-.147.587-.257.924-.33.293-.073.491-.11.594-.11.103 0 .19.03.264.088.088.044.198.132.33.264.396.176.667.403.814.682.161.264.242.682.242 1.254 0 .953-.389 1.987-1.166 3.102-.337.484-.653.858-.946 1.122a9.16 9.16 0 01-1.166.814 4.01 4.01 0 01-.858.484c-.25.088-.535.14-.858.154zm2.112-2.332c.352-.396.63-.77.836-1.122.22-.352.425-.8.616-1.342.073-.25.11-.55.11-.902 0-.44-.059-.69-.176-.748a.977.977 0 00-.44-.11c-.323 0-.66.147-1.012.44a5.877 5.877 0 00-1.144 1.364c-.337.528-.682 1.188-1.034 1.98a2.09 2.09 0 00-.22.902c0 .22.051.396.154.528a.588.588 0 00.462.198c.484 0 1.1-.396 1.848-1.188zm4.742 1.848a.705.705 0 01-.176-.44c0-.117-.037-.176-.11-.176-.088-.088.08-.587.506-1.496.425-.924.792-1.628 1.1-2.112a.4.4 0 00.132-.176c.03-.088.03-.132 0-.132.03-.044.073-.117.132-.22a1.98 1.98 0 01.176-.264c.25-.484.352-.873.308-1.166a.21.21 0 00-.198-.066.271.271 0 00-.11.044c-.03.015-.11.044-.242.088a.977.977 0 00-.308.132c-.338.22-.55.33-.638.33-.088 0-.169-.044-.242-.132a2.178 2.178 0 01-.198-.44 1.047 1.047 0 01-.066-.286c0-.103.059-.205.176-.308a.855.855 0 01.308-.198c.132-.059.22-.103.264-.132.308-.176.528-.279.66-.308.264-.073.477-.11.638-.11.44 0 .748.205.924.616.205.25.308.535.308.858 0 .279-.103.638-.308 1.078l-.22.33a.531.531 0 00-.066.176c0 .03.007.044.022.044.058 0 .124-.051.198-.154.073-.073.169-.161.286-.264.117-.117.198-.176.242-.176a.168.168 0 00.066-.022c.03-.03.044-.088.044-.176l.22-.198c.059 0 .234-.125.528-.374l.418-.33c.161-.117.308-.176.44-.176a.668.668 0 01.198-.022c.278 0 .506.154.682.462.176.293.264.675.264 1.144l-.462 1.188.792-.968c.132-.161.308-.337.528-.528.029-.088.066-.14.11-.154a.376.376 0 01.11-.044c.014 0 .029-.007.044-.022.029-.015.044-.037.044-.066a4.85 4.85 0 01.22-.154.868.868 0 00.198-.176c.132-.059.278-.088.44-.088.308 0 .564.198.77.594.088.161.139.308.154.44.029.117.044.323.044.616-.059.323-.11.66-.154 1.012 0 .059-.015.205-.044.44-.074.161-.11.41-.11.748 0 .205.007.337.022.396.029.059.088.088.176.088.22-.044.506-.147.858-.308.366-.176.63-.345.792-.506.22-.22.418-.33.594-.33.161 0 .264.088.308.264.044.088-.074.323-.352.704-.264.381-.448.572-.55.572-.03 0-.088.044-.176.132a.985.985 0 01-.176.176c-.25.279-.455.418-.616.418a.663.663 0 00-.242.066.773.773 0 01-.242.044.647.647 0 01-.22.022c-.22 0-.433-.059-.638-.176a.804.804 0 01-.396-.528c-.118-.293-.176-.704-.176-1.232 0-.132.014-.345.044-.638l.11-.682c.029-.279.058-.447.088-.506v-.198c0-.25-.022-.374-.066-.374-.118 0-.506.381-1.166 1.144-.66.748-1.166 1.393-1.518 1.936-.103.132-.22.33-.352.594-.118.25-.19.381-.22.396a.273.273 0 01-.198.088c-.088 0-.183-.044-.286-.132a1.192 1.192 0 01-.264-.33 1.002 1.002 0 01-.088-.33c0-.103.044-.3.132-.594.088-.308.213-.711.374-1.21.161-.484.293-.902.396-1.254.117-.352.19-.587.22-.704 0-.103-.367.161-1.1.792a8.39 8.39 0 01-.506.55c-.338.352-.719.763-1.144 1.232-.41.47-.77.917-1.078 1.342-.323.44-.565.748-.726.924-.147.176-.272.264-.374.264-.073 0-.169-.066-.286-.198zm19.657.286a2.241 2.241 0 01-.286-.242c-.074-.103-.11-.183-.11-.242-.03-.059-.059-.095-.088-.11a.246.246 0 00-.11-.022c-.059.03-.118-.066-.176-.286-.059-.235-.074-.403-.044-.506.058-.132.176-.198.352-.198.102 0 .198.03.286.088.088.044.139.11.154.198.029.117.132.213.308.286.19.059.425.088.704.088.586 0 1.232-.198 1.936-.594.718-.396 1.268-.843 1.65-1.342.117-.25.22-.572.308-.968.102-.41.154-.726.154-.946 0-.132-.022-.198-.066-.198a.737.737 0 00-.044-.176 1.716 1.716 0 00-.088-.308c-.074-.205-.242-.425-.506-.66a2.778 2.778 0 00-.77-.506 7.18 7.18 0 00-.924-.088c-.176 0-.301.007-.374.022l-.33.022c-.147 0-.272-.007-.374-.022a1.9 1.9 0 00-.198-.022c-.118-.03-.294-.14-.528-.33-.235-.205-.352-.36-.352-.462.044-.22.264-.645.66-1.276.396-.645.755-1.13 1.078-1.452.425-.455.894-.8 1.408-1.034a3.77 3.77 0 011.628-.374c.542 0 .909.03 1.1.088.205.059.396.205.572.44.102.19.154.36.154.506 0 .117-.03.213-.088.286a.294.294 0 01-.242.11.586.586 0 01-.264-.066c-.162-.103-.396-.154-.704-.154-.338 0-.763.073-1.276.22a4.148 4.148 0 00-.99.572c-.338.25-.543.455-.616.616-.03.03-.066.073-.11.132-.044.044-.088.059-.132.044a1.26 1.26 0 00-.088.11.232.232 0 00-.044.132.855.855 0 00-.11.132.257.257 0 01-.088.088c-.015 0-.037-.022-.066-.066l-.022.22v.11c0 .088.029.154.088.198.073.044.212.073.418.088.41.059.704.117.88.176.19.059.454.19.792.396.498.293.887.719 1.166 1.276a3.9 3.9 0 01.418 1.804c0 .132-.015.345-.044.638-.044.367-.096.63-.154.792-.044.161-.162.389-.352.682a6.086 6.086 0 01-2.002 1.738c-.822.44-1.592.66-2.31.66-.44 0-.822-.103-1.144-.308zm12.39.066c-.161 0-.433-.103-.814-.308a5.057 5.057 0 01-.902-.594c-.411-.396-.741-.895-.99-1.496a5.208 5.208 0 01-.352-1.87c0-.132.015-.345.044-.638.161-.924.506-1.84 1.034-2.75.543-.924 1.173-1.694 1.892-2.31a6.422 6.422 0 011.034-.77 4.08 4.08 0 011.122-.44c.205-.059.528-.088.968-.088a2.3 2.3 0 01.858.176c.308.117.565.264.77.44.205.161.308.315.308.462 0 .132-.015.213-.044.242-.015.03-.073.022-.176-.022h-.22l.22.638c.059.132.11.293.154.484.044.19.066.367.066.528 0 .264-.081.777-.242 1.54-.161.748-.301 1.254-.418 1.518a1.032 1.032 0 00-.088.462l-.55 1.21a.43.43 0 00-.132.154c-.029.059-.022.11.022.154 0 .059-.081.227-.242.506-.147.264-.242.396-.286.396a.165.165 0 00-.066.022c-.029 0-.044.022-.044.066 0 .059-.103.213-.308.462-.191.25-.411.499-.66.748-.22.235-.55.477-.99.726-.425.235-.748.352-.968.352zm-.066-1.386c.352 0 .631-.103.836-.308.279-.19.587-.484.924-.88.352-.41.609-.8.77-1.166.147-.205.264-.418.352-.638.103-.22.264-.653.484-1.298.103-.147.176-.33.22-.55.059-.235.088-.447.088-.638 0-.645.037-1.1.11-1.364 0-.41-.007-.667-.022-.77a.667.667 0 00-.176-.352.815.815 0 00-.528-.198c-.103 0-.293.059-.572.176a3.47 3.47 0 00-.594.264.698.698 0 01-.198.044.645.645 0 01-.242-.044c-.059-.044-.088-.095-.088-.154 0-.103-.044-.154-.132-.154-.117 0-.279.088-.484.264a6 6 0 00-.66.682 5.856 5.856 0 00-.66.792c-.191.279-.286.447-.286.506a.685.685 0 01-.088.242l-.11.286c-.103.161-.242.447-.418.858-.176.396-.286.682-.33.858V11c0 .367.022.653.066.858.044.205.125.418.242.638.059.103.154.227.286.374.132.147.213.242.242.286.103.103.183.176.242.22.073.03.161.044.264.044.117 0 .271-.022.462-.066zm21.436-.066c.059.044.088.11.088.198a.523.523 0 01-.11.308c-.058.088-.117.132-.176.132-.278 0-.55-.073-.814-.22-.249-.161-.374-.41-.374-.748v-1.364c0-.69-.051-1.078-.154-1.166-.22-.117-.601.125-1.144.726a15.159 15.159 0 00-1.54 2.134c-.161.264-.293.47-.396.616-.102.147-.183.22-.242.22-.044 0-.117-.037-.22-.11-.454-.132-.682-.389-.682-.77 0-.044.015-.14.044-.286.147-.484.294-1.02.44-1.606.147-.601.264-1.107.352-1.518a.227.227 0 00-.22-.132c-.146 0-.315.073-.506.22-.366.25-.836.843-1.408 1.782-.718 1.1-1.217 1.767-1.496 2.002a2.842 2.842 0 01-.286.418c-.073.088-.146.132-.22.132-.058 0-.168-.044-.33-.132-.425-.25-.638-.601-.638-1.056 0-.22.066-.66.198-1.32s.279-1.276.44-1.848c.132-.25.25-.506.352-.77.118-.279.176-.447.176-.506.059-.308.132-.638.22-.99s.154-.55.198-.594a.485.485 0 01.352-.154c.22 0 .382.117.484.352a.832.832 0 01.242.616c0 .279-.08.638-.242 1.078-.249.543-.52 1.335-.814 2.376a8.27 8.27 0 00.66-.792c.352-.499.807-1.056 1.364-1.672.455-.499.968-.748 1.54-.748.675.117 1.064.682 1.166 1.694 0 .176-.014.396-.044.66-.029.25-.051.41-.066.484.059-.088.206-.279.44-.572.25-.293.55-.594.902-.902.323-.25.624-.374.902-.374.235 0 .44.095.616.286.308.176.528.425.66.748.132.308.198.704.198 1.188 0 .25-.007.447-.022.594a8.122 8.122 0 00-.044.55c0 .279.052.557.154.836zm4.968 1.144a1.931 1.931 0 01-1.32.484c-.367 0-.719-.088-1.056-.264a2.405 2.405 0 01-.814-.726 2.28 2.28 0 01-.418-.792c-.088-.293-.132-.653-.132-1.078 0-.147.014-.44.044-.88.044-.543.22-1.107.528-1.694a6.53 6.53 0 011.188-1.562c.469-.47.931-.792 1.386-.968.234-.147.447-.22.638-.22.102 0 .205.007.308.022.102.015.212.03.33.044.322.044.564.11.726.198.176.073.322.19.44.352.366.367.55.792.55 1.276-.059.352-.286.755-.682 1.21a4.61 4.61 0 01-1.43 1.1 2.849 2.849 0 01-.902.132c-.455 0-.822-.095-1.1-.286a1.057 1.057 0 00-.308-.066c-.132 0-.235.088-.308.264-.059.176-.118.499-.176.968a3.27 3.27 0 00-.022.44c0 .748.249 1.159.748 1.232.337.073.579.11.726.11.176 0 .374-.059.594-.176l.418-.242a.94.94 0 00.242-.176 61.422 61.422 0 01.33-.33.382.382 0 01.154-.132.353.353 0 01.154-.044c.058 0 .124.037.198.11.073.059.132.103.176.132.132 0 .161.095.088.286-.074.176-.235.389-.484.638a4.488 4.488 0 01-.814.638zm-.022-4.664c.249-.103.498-.286.748-.55.264-.264.396-.484.396-.66a.564.564 0 00-.198-.44c-.132-.117-.316-.176-.55-.176-.176 0-.308.015-.396.044-.206.059-.448.22-.726.484-.279.25-.521.506-.726.77-.206.264-.286.418-.242.462.073.132.359.198.858.198.337 0 .616-.044.836-.132zm8.672 5.192c-.117-.03-.242-.059-.374-.088a14.172 14.172 0 00-.418-.132c-.117-.161-.176-.374-.176-.638 0-.22.044-.477.132-.77.088-.308.183-.609.286-.902.029-.088.081-.257.154-.506.088-.25.139-.455.154-.616-.015-.044-.037-.059-.066-.044-.029.015-.044.037-.044.066-.147.161-.469.279-.968.352-.631.103-1.181.22-1.65.352l-.286-.22c-.117 0-.22.132-.308.396a9.132 9.132 0 00-.264 1.056c-.088.44-.154.711-.198.814l-.374.044c-.132 0-.345-.051-.638-.154-.132-.205-.198-.389-.198-.55 0-.117.022-.25.066-.396.029-.103.073-.308.132-.616.073-.308.183-.638.33-.99.029-.073.088-.205.176-.396.088-.205.132-.403.132-.594.103-.132.183-.3.242-.506.059-.22.11-.389.154-.506l.44-1.078c.147-.381.264-.704.352-.968.103-.264.161-.484.176-.66.015-.205.125-.308.33-.308.205 0 .411.088.616.264.22.176.33.374.33.594a.734.734 0 01-.044.22 5.184 5.184 0 00-.176.462 7.552 7.552 0 01-.22.572c-.337.953-.557 1.54-.66 1.76a.582.582 0 01-.088.154.211.211 0 00-.066.154c.059.059.183.088.374.088.264 0 .484-.044.66-.132h1.298c.22.132.389.33.506.594l.33-.88c.528-1.364.821-2.244.88-2.64.044-.235.198-.433.462-.594.088.044.213.095.374.154.176.059.315.14.418.242a.616.616 0 01.198.374c-.015.147-.051.3-.11.462a6.896 6.896 0 00-.11.286 34.24 34.24 0 01-.484 1.232c-.044.117-.161.41-.352.88a28.8 28.8 0 00-.462 1.276 7.113 7.113 0 00-.242 1.012c-.044.19-.117.462-.22.814-.088.337-.154.58-.198.726 0 .19-.103.352-.308.484zm4.76-.66a1.2 1.2 0 01-.264.044c-.073 0-.213-.03-.418-.088-.308-.117-.462-.323-.462-.616 0-.132.044-.36.132-.682.044-.161.081-.323.11-.484.044-.176.059-.323.044-.44.059-.235.191-.645.396-1.232.132-.352.249-.704.352-1.056.103-.367.154-.66.154-.88 0-.088-.022-.198-.066-.33a1.047 1.047 0 01-.066-.286c0-.132.059-.257.176-.374l.55-.572c.147-.03.249-.044.308-.044s.147.015.264.044l.132-.022c.22-.117.528-.213.924-.286a5.269 5.269 0 011.144-.132c.469 0 .799.059.99.176.308.161.462.367.462.616 0 .044-.015.125-.044.242l-.286.22a.698.698 0 00-.198-.044.943.943 0 00-.176.022.45.45 0 01-.198 0 3.34 3.34 0 00-.55-.044 5.4 5.4 0 00-.968.088c-.308.059-.535.147-.682.264-.015.103-.293.96-.836 2.574a9.475 9.475 0 00-.396 1.122c-.103.367-.213.814-.33 1.342l-.198.858zm6.572.968a1.985 1.985 0 01-1.562-.704c-.411-.47-.616-1.056-.616-1.76s.154-1.474.462-2.31a9.482 9.482 0 011.232-2.288c.499-.675 1.005-1.13 1.518-1.364.293-.161.623-.242.99-.242.279 0 .594.08.946.242.249.103.44.227.572.374.132.147.249.374.352.682.044.264.066.447.066.55 0 .088-.037.279-.11.572a4.565 4.565 0 01-.704 1.386 3.674 3.674 0 01-1.1.946c-.235.147-.528.22-.88.22-.308 0-.601-.051-.88-.154a1.407 1.407 0 01-.616-.506l-.154-.176-.066.176c-.308.792-.462 1.467-.462 2.024 0 .381.073.69.22.924.103.161.352.242.748.242.293 0 .506-.03.638-.088a2.55 2.55 0 00.572-.264c.176-.117.345-.235.506-.352l.088-.044h-.022a5.458 5.458 0 00.682-.396.195.195 0 00.088-.022.25.25 0 00.088-.088c.132-.059.286-.037.462.066.176.103.264.235.264.396-.029.117-.161.308-.396.572-.235.264-.411.403-.528.418a.69.69 0 00-.154.066.734.734 0 00-.176.11h.022c-.132.176-.264.264-.396.264h-.176c-.059.117-.257.235-.594.352a2.707 2.707 0 01-.924.176zm.99-4.84c.44 0 .843-.25 1.21-.748.352-.47.528-.939.528-1.408 0-.25-.051-.425-.154-.528a.549.549 0 00-.242-.066c-.073 0-.198.022-.374.066-.191.044-.484.25-.88.616-.396.352-.689.667-.88.946l-.286.462a.94.94 0 01.33-.066c.117-.015.183-.007.198.022 0 .205.051.374.154.506a.48.48 0 00.396.198z" fill="#F3122E"/></svg>